# Blender 4.4.3
# www.blender.org
mtllib Untitled.mtl
o Cube
v 0.416107 0.000000 0.416107
v -0.416107 0.000000 0.416107
v -0.416107 0.000000 -0.416107
v 0.416107 0.000000 -0.416107
v -1.851248 4.757393 3.482998
v -1.967399 4.754738 3.470340
v -1.962264 4.850247 3.403184
v -1.846113 4.852902 3.415842
v -1.657211 4.116089 2.770462
v -1.947838 4.056330 2.637961
v -1.956587 4.359200 2.520555
v -1.665960 4.418960 2.653056
v -0.242695 4.103799 1.466750
v -0.623783 4.025109 1.248052
v -0.580075 4.413365 1.032191
v -0.198987 4.492055 1.250889
v -1.945040 4.024716 -2.383139
v -1.800981 4.078066 -2.580371
v -1.814576 4.321362 -2.524491
v -1.958635 4.268012 -2.327259
v -1.914522 4.094107 -2.416203
v -1.837859 4.122498 -2.521164
v -1.845094 4.251971 -2.491427
v -1.921757 4.223580 -2.386466
v -0.922077 3.925112 -1.671022
v -0.723703 3.962549 -1.828874
v -0.685816 4.194312 -1.726296
v -0.884191 4.156874 -1.568443
v 1.068587 2.513559 0.172896
v 0.969050 2.549520 0.661567
v 0.783760 3.008382 0.590057
v 0.883298 2.972420 0.101387
v 2.489266 3.348339 0.174583
v 2.696276 3.454553 0.483242
v 2.663086 3.825002 0.378025
v 2.456076 3.718788 0.069366
v 2.984003 2.677770 -0.785744
v 3.178412 2.692904 -0.702911
v 3.213703 2.867485 -0.817634
v 3.019293 2.852352 -0.900468
v -1.719088 4.325804 2.999730
v -1.972797 4.320006 2.972082
v -1.961580 4.528628 2.825393
v -1.707870 4.534426 2.853041
v -1.759133 4.456576 3.146161
v -1.971161 4.451731 3.123056
v -1.961787 4.626080 3.000465
v -1.749758 4.630925 3.023571
v -1.792956 4.567032 3.269843
v -1.969780 4.562991 3.250573
v -1.961962 4.708391 3.148338
v -1.785138 4.712432 3.167607
v -1.823282 4.666067 3.380736
v -1.968541 4.662747 3.364907
v -1.962119 4.782192 3.280921
v -1.816860 4.785511 3.296751
v -0.527092 4.100121 1.725039
v -0.815175 3.999761 1.435559
v -0.889220 4.408138 1.367667
v -0.601137 4.508498 1.657147
v -0.779579 4.104224 1.959504
v -1.053157 4.008918 1.684600
v -1.123473 4.396731 1.620126
v -0.849896 4.492038 1.895030
v -1.014667 4.108045 2.177810
v -1.274738 4.017444 1.916477
v -1.341583 4.386112 1.855186
v -1.081511 4.476713 2.116519
v -1.239122 4.111693 2.386244
v -1.486298 4.025584 2.137869
v -1.549829 4.375972 2.079617
v -1.302653 4.462081 2.327992
v -1.455990 4.115217 2.587631
v -1.690706 4.033449 2.351775
v -1.751035 4.366175 2.296460
v -1.516318 4.447943 2.532315
v 0.090343 2.706594 0.591684
v -0.424187 2.706594 0.422277
v -0.318599 3.018032 -0.079156
v 0.227915 3.022701 0.173845
v -0.002317 3.086884 0.832347
v -0.492627 3.086884 0.670913
v -0.361530 3.388111 0.272742
v 0.128780 3.388111 0.434175
v -0.089803 3.445939 1.059571
v -0.557246 3.445939 0.905667
v -0.432263 3.733118 0.526065
v 0.035180 3.733118 0.679969
v -0.174090 3.791865 1.278486
v -0.619502 3.791865 1.131835
v -0.500410 4.065508 0.770124
v -0.054997 4.065508 0.916775
v -1.092099 3.944422 -1.791619
v -0.956906 3.994489 -1.976713
v -0.969664 4.222811 -1.924273
v -1.104857 4.172744 -1.739178
v -1.256024 3.971646 -1.914151
v -1.130072 4.018290 -2.086592
v -1.141958 4.231004 -2.037736
v -1.267910 4.184360 -1.865295
v -1.403564 3.996148 -2.024436
v -1.285931 4.039712 -2.185488
v -1.297032 4.238378 -2.139859
v -1.414665 4.194814 -1.978806
v -1.541380 4.019035 -2.127451
v -1.431517 4.059721 -2.277866
v -1.441885 4.245265 -2.235251
v -1.551748 4.204579 -2.084836
v -1.672389 4.040792 -2.225379
v -1.569912 4.078743 -2.365681
v -1.579582 4.251812 -2.325931
v -1.682060 4.213862 -2.185628
v -1.798217 4.061688 -2.319434
v -1.702833 4.097013 -2.450024
v -1.711834 4.258101 -2.413025
v -1.807218 4.222777 -2.282435
v -0.489282 2.639956 -0.455807
v -0.042294 2.639956 -0.667359
v 0.096406 3.013363 -0.374302
v -0.587609 2.918860 -0.722266
v -0.186019 2.918860 -0.912332
v -0.061407 3.254341 -0.649039
v -0.462997 3.254341 -0.458974
v -0.672637 3.160046 -0.952690
v -0.310308 3.160046 -1.124175
v -0.197879 3.462731 -0.886622
v -0.560208 3.462731 -0.715138
v -0.750039 3.379599 -1.162446
v -0.423449 3.379599 -1.317015
v -0.322108 3.652428 -1.102894
v -0.648699 3.652428 -0.948324
v -0.822223 3.584350 -1.358060
v -0.528961 3.584350 -1.496856
v -0.437963 3.829336 -1.304586
v -0.731225 3.829336 -1.165790
v -0.890503 3.778029 -1.543097
v -0.628769 3.778029 -1.666972
v -0.547553 3.996678 -1.495371
v -0.809288 3.996678 -1.371497
v 0.375627 0.754159 0.375627
v -0.375627 0.754159 0.375627
v -0.375627 0.754159 -0.375627
v 0.375627 0.754159 -0.375627
v 0.343474 1.353167 0.343474
v -0.343474 1.353167 0.343474
v -0.343474 1.353167 -0.343474
v 0.343474 1.353167 -0.343474
v 0.313860 1.904876 0.313860
v -0.313860 1.904876 0.313860
v -0.313860 1.904876 -0.313860
v 0.313860 1.904876 -0.313860
v 0.663263 2.348388 -0.015679
v 0.459818 2.348388 0.478259
v 0.303986 2.855302 0.414074
v 0.507431 2.855302 -0.079864
v 1.432414 2.713852 0.157660
v 1.424975 2.788178 0.624480
v 1.212174 3.204545 0.554796
v 1.219613 3.130218 0.087975
v 1.763226 2.894091 0.145941
v 1.756150 2.964783 0.589932
v 1.553756 3.360787 0.523655
v 1.560831 3.290095 0.079665
v 2.074916 3.063913 0.134900
v 2.068183 3.131180 0.557380
v 1.875595 3.507998 0.494315
v 1.882327 3.440731 0.071834
v 2.374804 3.227304 0.124277
v 2.368401 3.291276 0.526061
v 2.185246 3.649635 0.466085
v 2.191649 3.585664 0.064301
v 2.544262 3.201900 -0.008539
v 2.852836 3.225920 0.122938
v 2.908851 3.503022 -0.059156
v 2.600277 3.479002 -0.190632
v 2.670386 3.051571 -0.231454
v 2.946217 3.073042 -0.113929
v 2.996288 3.320740 -0.276700
v 2.720458 3.299268 -0.394225
v 2.782375 2.918091 -0.429384
v 3.029131 2.937300 -0.324247
v 3.073924 3.158888 -0.469860
v 2.827168 3.139680 -0.574998
v 2.886069 2.794497 -0.612655
v 3.105904 2.811610 -0.518988
v 3.145810 3.009024 -0.648716
v 2.925976 2.991911 -0.742382
vn 0.0330 0.8733 -0.4861
vn -0.4123 -0.2666 -0.8712
vn -0.9992 -0.0143 -0.0371
vn -0.0933 -0.7693 0.6320
vn -0.9250 0.3778 0.0399
vn -0.9990 0.0380 -0.0223
vn -0.0007 0.9999 -0.0169
vn 0.3609 -0.5620 -0.7443
vn 0.6300 0.3210 -0.7072
vn 0.7008 0.1265 -0.7021
vn 0.6713 -0.0309 -0.7406
vn -0.0000 -0.4334 -0.9012
vn -0.0544 -0.7521 0.6568
vn 0.9813 0.0847 0.1731
vn -0.0000 -0.3476 0.9377
vn -0.0184 -0.3191 0.9476
vn -0.3082 -0.1690 0.9362
vn 0.0387 0.8718 -0.4884
vn 0.5330 0.8456 0.0292
vn -0.0746 0.8069 0.5859
vn -0.8155 0.0859 -0.5724
vn 0.8278 -0.5406 0.1501
vn -0.1016 0.5759 0.8112
vn -0.0000 -1.0000 -0.0000
vn -0.9821 -0.1815 0.0505
vn 0.5043 0.2593 0.8237
vn 0.9777 0.0832 0.1931
vn 0.1712 -0.9780 0.1191
vn -0.6885 -0.2665 -0.6745
vn -0.1448 0.9774 -0.1537
vn 0.6721 0.2710 0.6891
vn 0.1543 -0.9709 0.1831
vn -0.7064 -0.2389 -0.6663
vn -0.1977 0.9703 -0.1396
vn 0.6630 0.2382 0.7098
vn 0.1542 -0.9709 0.1831
vn 0.1352 -0.9741 0.1814
vn -0.7205 -0.2537 -0.6454
vn -0.1941 0.9761 -0.0982
vn 0.6180 0.2680 0.7391
vn -0.2589 -0.5608 0.7864
vn -0.9726 0.0391 -0.2292
vn 0.2810 0.6455 -0.7102
vn 0.9444 0.0225 0.3280
vn -0.9545 0.0225 -0.2972
vn 0.2488 0.6059 -0.7557
vn -0.3115 -0.4947 0.8113
vn -0.9685 0.0216 -0.2482
vn 0.2609 0.6351 -0.7270
vn 0.9464 0.0463 0.3198
vn 0.8155 -0.0859 0.5724
vn 0.0253 -0.9743 -0.2240
vn 0.5591 0.2372 -0.7945
vn -0.0564 0.9792 0.1950
vn -0.5952 -0.2272 0.7708
vn 0.0226 -0.9691 -0.2456
vn 0.5441 0.2166 -0.8106
vn -0.0860 0.9758 0.2011
vn -0.6075 -0.2099 0.7661
vn -0.0320 -0.9587 -0.2827
vn 0.4869 0.2213 -0.8449
vn -0.1402 0.9768 0.1619
vn -0.6591 -0.2031 0.7241
vn -0.3003 -0.7121 -0.6346
vn 0.8817 0.0414 -0.4701
vn 0.2867 0.8323 0.4745
vn -0.9240 0.0415 0.3801
vn 0.2595 0.7950 0.5483
vn -0.9225 0.0414 0.3838
vn -0.3368 -0.6892 -0.6416
vn 0.8807 0.0536 -0.4706
vn 0.2642 0.8006 0.5379
vn -0.9382 0.0386 0.3440
vn -0.0000 0.0536 0.9986
vn -0.9986 0.0536 -0.0000
vn -0.0000 0.0536 -0.9986
vn 0.9986 0.0536 -0.0000
vn 0.3213 -0.9375 0.1334
vn -0.3446 0.0102 0.9387
vn -0.2556 0.9600 -0.1139
vn 0.4214 0.0215 -0.9066
vn 0.4741 -0.8671 0.1532
vn 0.0020 0.1602 0.9871
vn -0.4231 0.8935 -0.1505
vn 0.0334 -0.1444 -0.9890
vn 0.4773 -0.8666 0.1456
vn 0.0117 0.1709 0.9852
vn -0.4225 0.8940 -0.1491
vn 0.0431 -0.1434 -0.9887
vn 0.5395 -0.8406 0.0490
vn 0.0579 0.2370 0.9698
vn -0.3918 0.9137 -0.1082
vn 0.2387 -0.1467 -0.9599
vn -0.2125 -0.8409 0.4977
vn 0.9187 0.1326 0.3719
vn 0.2407 0.8171 -0.5238
vn -0.9391 -0.1112 -0.3252
vn -0.1446 -0.8564 0.4957
vn 0.9377 0.0375 0.3455
vn 0.1880 0.7887 -0.5853
vn -0.8942 -0.1051 -0.4351
s 0
usemtl Material.001
f 47//1 48//1 44//1 43//1
f 118//2 150//2 117//2
f 42//3 43//3 11//3 10//3
f 41//4 42//4 10//4 9//4
f 78//5 79//5 117//5
f 46//6 47//6 43//6 42//6
f 79//7 80//7 119//7
f 40//8 39//8 38//8 37//8
f 155//9 118//9 119//9
f 155//10 152//10 118//10
f 152//11 151//11 118//11
f 151//12 150//12 118//12
f 45//13 46//13 42//13 41//13
f 44//14 41//14 9//14 12//14
f 148//15 153//15 149//15
f 153//16 77//16 149//16
f 77//17 78//17 149//17
f 43//18 44//18 12//18 11//18
f 154//19 155//19 119//19 80//19
f 77//20 154//20 80//20
f 20//21 19//21 18//21 17//21
f 148//22 151//22 152//22 153//22
f 8//23 7//23 6//23 5//23
f 1//24 2//24 3//24 4//24
f 149//25 78//25 117//25 150//25
f 154//26 77//26 153//26
f 48//27 45//27 41//27 44//27
f 49//13 50//13 46//13 45//13
f 50//6 51//6 47//6 46//6
f 51//1 52//1 48//1 47//1
f 52//27 49//27 45//27 48//27
f 53//13 54//13 50//13 49//13
f 54//6 55//6 51//6 50//6
f 55//1 56//1 52//1 51//1
f 56//27 53//27 49//27 52//27
f 5//13 6//13 54//13 53//13
f 6//6 7//6 55//6 54//6
f 7//1 8//1 56//1 55//1
f 8//27 5//27 53//27 56//27
f 57//28 58//28 14//28 13//28
f 58//29 59//29 15//29 14//29
f 59//30 60//30 16//30 15//30
f 60//31 57//31 13//31 16//31
f 61//32 62//32 58//32 57//32
f 62//33 63//33 59//33 58//33
f 63//34 64//34 60//34 59//34
f 64//35 61//35 57//35 60//35
f 65//36 66//36 62//36 61//36
f 66//33 67//33 63//33 62//33
f 67//34 68//34 64//34 63//34
f 68//35 65//35 61//35 64//35
f 69//32 70//32 66//32 65//32
f 70//33 71//33 67//33 66//33
f 71//34 72//34 68//34 67//34
f 72//35 69//35 65//35 68//35
f 73//32 74//32 70//32 69//32
f 74//33 75//33 71//33 70//33
f 75//34 76//34 72//34 71//34
f 76//35 73//35 69//35 72//35
f 9//37 10//37 74//37 73//37
f 10//38 11//38 75//38 74//38
f 11//39 12//39 76//39 75//39
f 12//40 9//40 73//40 76//40
f 81//41 82//41 78//41 77//41
f 82//42 83//42 79//42 78//42
f 83//43 84//43 80//43 79//43
f 84//44 81//44 77//44 80//44
f 85//41 86//41 82//41 81//41
f 86//45 87//45 83//45 82//45
f 87//46 88//46 84//46 83//46
f 88//44 85//44 81//44 84//44
f 89//41 90//41 86//41 85//41
f 90//45 91//45 87//45 86//45
f 91//46 92//46 88//46 87//46
f 92//44 89//44 85//44 88//44
f 13//47 14//47 90//47 89//47
f 14//48 15//48 91//48 90//48
f 15//49 16//49 92//49 91//49
f 16//50 13//50 89//50 92//50
f 17//51 18//51 22//51 21//51
f 18//51 19//51 23//51 22//51
f 19//51 20//51 24//51 23//51
f 20//51 17//51 21//51 24//51
f 93//52 94//52 26//52 25//52
f 94//53 95//53 27//53 26//53
f 95//54 96//54 28//54 27//54
f 96//55 93//55 25//55 28//55
f 97//56 98//56 94//56 93//56
f 98//57 99//57 95//57 94//57
f 99//58 100//58 96//58 95//58
f 100//59 97//59 93//59 96//59
f 101//56 102//56 98//56 97//56
f 102//57 103//57 99//57 98//57
f 103//58 104//58 100//58 99//58
f 104//59 101//59 97//59 100//59
f 105//56 106//56 102//56 101//56
f 106//57 107//57 103//57 102//57
f 107//58 108//58 104//58 103//58
f 108//59 105//59 101//59 104//59
f 109//56 110//56 106//56 105//56
f 110//57 111//57 107//57 106//57
f 111//58 112//58 108//58 107//58
f 112//59 109//59 105//59 108//59
f 113//56 114//56 110//56 109//56
f 114//57 115//57 111//57 110//57
f 115//58 116//58 112//58 111//58
f 116//59 113//59 109//59 112//59
f 21//60 22//60 114//60 113//60
f 22//61 23//61 115//61 114//61
f 23//62 24//62 116//62 115//62
f 24//63 21//63 113//63 116//63
f 120//64 121//64 118//64 117//64
f 121//65 122//65 119//65 118//65
f 122//66 123//66 79//66 119//66
f 123//67 120//67 117//67 79//67
f 124//64 125//64 121//64 120//64
f 125//65 126//65 122//65 121//65
f 126//68 127//68 123//68 122//68
f 127//69 124//69 120//69 123//69
f 128//64 129//64 125//64 124//64
f 129//65 130//65 126//65 125//65
f 130//68 131//68 127//68 126//68
f 131//69 128//69 124//69 127//69
f 132//64 133//64 129//64 128//64
f 133//65 134//65 130//65 129//65
f 134//68 135//68 131//68 130//68
f 135//69 132//69 128//69 131//69
f 136//64 137//64 133//64 132//64
f 137//65 138//65 134//65 133//65
f 138//68 139//68 135//68 134//68
f 139//69 136//69 132//69 135//69
f 25//70 26//70 137//70 136//70
f 26//71 27//71 138//71 137//71
f 27//72 28//72 139//72 138//72
f 28//73 25//73 136//73 139//73
f 140//74 141//74 2//74 1//74
f 141//75 142//75 3//75 2//75
f 142//76 143//76 4//76 3//76
f 143//77 140//77 1//77 4//77
f 144//74 145//74 141//74 140//74
f 145//75 146//75 142//75 141//75
f 146//76 147//76 143//76 142//76
f 147//77 144//77 140//77 143//77
f 148//74 149//74 145//74 144//74
f 149//75 150//75 146//75 145//75
f 150//76 151//76 147//76 146//76
f 151//77 148//77 144//77 147//77
f 29//78 30//78 153//78 152//78
f 30//79 31//79 154//79 153//79
f 31//80 32//80 155//80 154//80
f 32//81 29//81 152//81 155//81
f 156//82 157//82 30//82 29//82
f 157//83 158//83 31//83 30//83
f 158//84 159//84 32//84 31//84
f 159//85 156//85 29//85 32//85
f 160//86 161//86 157//86 156//86
f 161//87 162//87 158//87 157//87
f 162//88 163//88 159//88 158//88
f 163//89 160//89 156//89 159//89
f 164//86 165//86 161//86 160//86
f 165//87 166//87 162//87 161//87
f 166//88 167//88 163//88 162//88
f 167//89 164//89 160//89 163//89
f 168//86 169//86 165//86 164//86
f 169//87 170//87 166//87 165//87
f 170//88 171//88 167//88 166//88
f 171//89 168//89 164//89 167//89
f 33//90 34//90 169//90 168//90
f 34//91 35//91 170//91 169//91
f 35//92 36//92 171//92 170//92
f 36//93 33//93 168//93 171//93
f 172//94 173//94 34//94 33//94
f 173//95 174//95 35//95 34//95
f 174//96 175//96 36//96 35//96
f 175//97 172//97 33//97 36//97
f 176//98 177//98 173//98 172//98
f 177//99 178//99 174//99 173//99
f 178//100 179//100 175//100 174//100
f 179//101 176//101 172//101 175//101
f 180//98 181//98 177//98 176//98
f 181//99 182//99 178//99 177//99
f 182//100 183//100 179//100 178//100
f 183//101 180//101 176//101 179//101
f 184//98 185//98 181//98 180//98
f 185//99 186//99 182//99 181//99
f 186//100 187//100 183//100 182//100
f 187//101 184//101 180//101 183//101
f 37//98 38//98 185//98 184//98
f 38//99 39//99 186//99 185//99
f 39//100 40//100 187//100 186//100
f 40//101 37//101 184//101 187//101
o Icosphere
v -1.872443 6.081501 -2.263101
v -3.315096 4.979404 -3.311237
v -1.392405 4.854668 -4.111872
v 0.239858 5.004096 -2.057732
v -1.321409 4.979404 -0.567165
v -3.315096 4.979404 -1.214964
v -2.395992 3.464101 -3.876419
v -0.666136 3.392770 -3.165276
v -0.447792 3.343845 -1.036170
v -2.423476 3.196164 -0.567165
v -3.528481 3.365163 -2.457596
v -1.650159 2.927631 -2.298968
vn -0.1885 0.7950 -0.5765
vn -0.6071 0.7947 -0.0000
vn 0.4455 0.7949 -0.4118
vn 0.3815 0.8268 0.4133
vn -0.1876 0.7947 0.5774
vn -0.9914 0.1310 -0.0000
vn -0.3755 0.1153 -0.9196
vn 0.7833 -0.0133 -0.6215
vn 0.6805 0.1583 0.7154
vn -0.3035 0.1876 0.9342
vn -0.7534 -0.2268 -0.6172
vn 0.3367 -0.3882 -0.8579
vn 0.8954 -0.4335 -0.1018
vn 0.2389 -0.1476 0.9598
vn -0.8452 -0.2513 0.4716
vn -0.2026 -0.9523 -0.2281
vn 0.1130 -0.9232 -0.3674
vn 0.3826 -0.9219 -0.0604
vn 0.1212 -0.9713 0.2047
vn -0.2304 -0.9719 0.0478
vt 0.181819 0.000000
vt 0.272728 0.157461
vt 0.090910 0.157461
vt 0.363637 0.000000
vt 0.454546 0.157461
vt 0.909091 0.000000
vt 1.000000 0.157461
vt 0.818182 0.157461
vt 0.727273 0.000000
vt 0.636364 0.157461
vt 0.545455 0.000000
vt 0.363637 0.314921
vt 0.181819 0.314921
vt 0.909091 0.314921
vt 0.727273 0.314921
vt 0.545455 0.314921
vt 0.000000 0.314921
vt 0.272728 0.472382
vt 0.090910 0.472382
vt 0.818182 0.472382
vt 0.636364 0.472382
vt 0.454546 0.472382
s 0
usemtl leaf
f 188/1/102 190/3/102 189/2/102
f 189/2/103 193/5/103 188/4/103
f 188/6/104 191/8/104 190/7/104
f 188/9/105 192/10/105 191/8/105
f 188/11/106 193/5/106 192/10/106
f 189/2/107 198/12/107 193/5/107
f 190/3/108 194/13/108 189/2/108
f 191/8/109 195/14/109 190/7/109
f 192/10/110 196/15/110 191/8/110
f 193/5/111 197/16/111 192/10/111
f 189/2/112 194/13/112 198/12/112
f 190/3/113 195/17/113 194/13/113
f 191/8/114 196/15/114 195/14/114
f 192/10/115 197/16/115 196/15/115
f 193/5/116 198/12/116 197/16/116
f 194/13/117 199/18/117 198/12/117
f 195/17/118 199/19/118 194/13/118
f 196/15/119 199/20/119 195/14/119
f 197/16/120 199/21/120 196/15/120
f 198/12/121 199/22/121 197/16/121
o Icosphere.001
v 3.726287 1.635407 -0.930382
v 4.752975 2.579227 0.108220
v 2.416132 2.669552 0.628447
v 1.967668 2.795269 -0.817391
v 3.163274 2.102712 -2.412193
v 4.742595 2.558698 -1.646772
v 2.767755 3.754820 0.960366
v 1.759018 3.720583 -0.068092
v 2.361271 3.775787 -1.804990
v 4.259855 3.880743 -2.072407
v 5.030064 3.943537 -0.768857
v 3.660310 4.705306 -0.882448
vn 0.1054 -0.7856 0.6097
vn 0.6742 -0.7385 0.0047
vn -0.5437 -0.8338 0.0961
vn -0.5522 -0.8321 -0.0526
vn 0.4327 -0.7995 -0.4166
vn 0.9796 -0.2012 -0.0034
vn 0.1914 -0.3433 0.9195
vn -0.8867 -0.3948 0.2407
vn -0.8237 -0.2027 -0.5295
vn 0.4600 -0.1155 -0.8804
vn 0.5436 0.3730 0.7519
vn -0.7141 0.0173 0.6998
vn -0.9441 0.0509 -0.3257
vn -0.1490 0.2735 -0.9503
vn 0.8486 0.1462 -0.5084
vn 0.3665 0.7426 0.5605
vn -0.3349 0.8937 0.2987
vn -0.5040 0.8510 -0.1477
vn -0.1289 0.7835 -0.6079
vn 0.4803 0.8154 -0.3231
vt 0.181819 0.000000
vt 0.272728 0.157461
vt 0.090910 0.157461
vt 0.363637 0.000000
vt 0.454546 0.157461
vt 0.909091 0.000000
vt 1.000000 0.157461
vt 0.818182 0.157461
vt 0.727273 0.000000
vt 0.636364 0.157461
vt 0.545455 0.000000
vt 0.363637 0.314921
vt 0.181819 0.314921
vt 0.909091 0.314921
vt 0.727273 0.314921
vt 0.545455 0.314921
vt 0.000000 0.314921
vt 0.272728 0.472382
vt 0.090910 0.472382
vt 0.818182 0.472382
vt 0.636364 0.472382
vt 0.454546 0.472382
s 0
usemtl leaf
f 200/23/122 201/24/122 202/25/122
f 201/24/123 200/26/123 205/27/123
f 200/28/124 202/29/124 203/30/124
f 200/31/125 203/30/125 204/32/125
f 200/33/126 204/32/126 205/27/126
f 201/24/127 205/27/127 210/34/127
f 202/25/128 201/24/128 206/35/128
f 203/30/129 202/29/129 207/36/129
f 204/32/130 203/30/130 208/37/130
f 205/27/131 204/32/131 209/38/131
f 201/24/132 210/34/132 206/35/132
f 202/25/133 206/35/133 207/39/133
f 203/30/134 207/36/134 208/37/134
f 204/32/135 208/37/135 209/38/135
f 205/27/136 209/38/136 210/34/136
f 206/35/137 210/34/137 211/40/137
f 207/39/138 206/35/138 211/41/138
f 208/37/139 207/36/139 211/42/139
f 209/38/140 208/37/140 211/43/140
f 210/34/141 209/38/141 211/44/141
o Icosphere.002
v -2.291223 2.831345 3.454434
v -0.256256 3.549291 5.261122
v -2.720265 3.822407 5.839695
v -4.932220 3.549291 3.403099
v -3.146133 3.549291 0.396730
v -0.480814 3.919885 1.054035
v -1.075678 6.225340 6.326329
v -4.723163 6.163259 5.032200
v -4.438549 6.134123 1.545076
v -1.548671 6.134123 0.396730
v 0.505976 6.120518 3.241764
v -2.648240 7.392370 4.313315
vn -0.0128 -0.9242 0.3817
vn 0.4101 -0.9064 -0.1017
vn -0.2535 -0.9086 0.3319
vn -0.2565 -0.9545 -0.1524
vn 0.1989 -0.9402 -0.2764
vn 0.9368 -0.3405 -0.0800
vn 0.1838 -0.3144 0.9313
vn -0.6732 -0.3516 0.6505
vn -0.8425 -0.1989 -0.5006
vn 0.2572 -0.1589 -0.9532
vn 0.8873 0.0918 0.4519
vn -0.3347 0.0384 0.9415
vn -0.9881 0.1300 -0.0817
vn -0.3600 0.2225 -0.9060
vn 0.7926 0.2126 -0.5714
vn 0.4211 0.8878 0.1857
vn -0.2317 0.7521 0.6170
vn -0.5217 0.8517 -0.0497
vn -0.1339 0.9319 -0.3370
vn 0.3020 0.9290 -0.2137
vt 0.181819 0.000000
vt 0.272728 0.157461
vt 0.090910 0.157461
vt 0.363637 0.000000
vt 0.454546 0.157461
vt 0.909091 0.000000
vt 1.000000 0.157461
vt 0.818182 0.157461
vt 0.727273 0.000000
vt 0.636364 0.157461
vt 0.545455 0.000000
vt 0.363637 0.314921
vt 0.181819 0.314921
vt 0.909091 0.314921
vt 0.727273 0.314921
vt 0.545455 0.314921
vt 0.000000 0.314921
vt 0.272728 0.472382
vt 0.090910 0.472382
vt 0.818182 0.472382
vt 0.636364 0.472382
vt 0.454546 0.472382
s 0
usemtl leaf
f 212/45/142 213/46/142 214/47/142
f 213/46/143 212/48/143 217/49/143
f 212/50/144 214/51/144 215/52/144
f 212/53/145 215/52/145 216/54/145
f 212/55/146 216/54/146 217/49/146
f 213/46/147 217/49/147 222/56/147
f 214/47/148 213/46/148 218/57/148
f 215/52/149 214/51/149 219/58/149
f 216/54/150 215/52/150 220/59/150
f 217/49/151 216/54/151 221/60/151
f 213/46/152 222/56/152 218/57/152
f 214/47/153 218/57/153 219/61/153
f 215/52/154 219/58/154 220/59/154
f 216/54/155 220/59/155 221/60/155
f 217/49/156 221/60/156 222/56/156
f 218/57/157 222/56/157 223/62/157
f 219/61/158 218/57/158 223/63/158
f 220/59/159 219/58/159 223/64/159
f 221/60/160 220/59/160 223/65/160
f 222/56/161 221/60/161 223/66/161
